{
  "accessors": [
    {
      "bufferView": 2,
      "componentType": 5126,
      "count": 188,
      "max": [
        0.2741590142250061,
        -0.2745720148086548,
        0.21701499819755554
      ],
      "min": [
        -0.2741590142250061,
        -0.3386540114879608,
        0.0614657998085022
      ],
      "type": "VEC3"
    },
    {
      "bufferView": 2,
      "byteOffset": 2256,
      "componentType": 5126,
      "count": 188,
      "max": [
        0.9866166710853577,
        0.9894588589668274,
        0.9201015830039978
      ],
      "min": [
        -0.9866164922714233,
        -0.9986786246299744,
        -0.9741551280021667
      ],
      "type": "VEC3"
    },
    {
      "bufferView": 3,
      "componentType": 5126,
      "count": 188,
      "max": [
        0.9156956672668457,
        0.8910113573074341,
        0.998445451259613,
        1.0
      ],
      "min": [
        -0.9644265174865723,
        -0.779514729976654,
        -0.997737467288971,
        1.0
      ],
      "type": "VEC4"
    },
    {
      "bufferView": 1,
      "componentType": 5126,
      "count": 188,
      "max": [
        0.5946379899978638,
        0.4997420012950897
      ],
      "min": [
        0.5013319849967957,
        0.37265101075172424
      ],
      "type": "VEC2"
    },
    {
      "bufferView": 0,
      "componentType": 5125,
      "count": 864,
      "type": "SCALAR"
    },
    {
      "bufferView": 2,
      "byteOffset": 4512,
      "componentType": 5126,
      "count": 5048,
      "max": [
        1.0,
        0.6064710021018982,
        0.23825900256633759
      ],
      "min": [
        -1.0,
        -0.6064710021018982,
        -0.23825900256633759
      ],
      "type": "VEC3"
    },
    {
      "bufferView": 2,
      "byteOffset": 65088,
      "componentType": 5126,
      "count": 5048,
      "max": [
        0.997833788394928,
        0.9573009014129639,
        0.9999463558197021
      ],
      "min": [
        -0.9980565309524536,
        -0.9982945322990417,
        -0.9999103546142578
      ],
      "type": "VEC3"
    },
    {
      "bufferView": 3,
      "byteOffset": 3008,
      "componentType": 5126,
      "count": 5048,
      "max": [
        0.9999982714653015,
        0.9987446069717407,
        0.9999358654022217,
        1.0
      ],
      "min": [
        -0.999998927116394,
        -0.9878969192504883,
        -0.999979555606842,
        -1.0
      ],
      "type": "VEC4"
    },
    {
      "bufferView": 1,
      "byteOffset": 1504,
      "componentType": 5126,
      "count": 5048,
      "max": [
        0.9974290132522583,
        0.996408998966217
      ],
      "min": [
        0.0,
        0.0
      ],
      "type": "VEC2"
    },
    {
      "bufferView": 0,
      "byteOffset": 3456,
      "componentType": 5125,
      "count": 25452,
      "type": "SCALAR"
    }
  ],
  "asset": {
    "extras": {
      "author": "ExposedLeaf (https://sketchfab.com/ExposedLeaf)",
      "license": "CC-BY-4.0 (http://creativecommons.org/licenses/by/4.0/)",
      "source": "https://sketchfab.com/3d-models/suit-jacket-8aa66be29de94480bb28e42330dd6d80",
      "title": "Suit Jacket"
    },
    "generator": "Sketchfab-12.68.0",
    "version": "2.0"
  },
  "bufferViews": [
    {
      "buffer": 0,
      "byteLength": 105264,
      "name": "floatBufferViews",
      "target": 34963
    },
    {
      "buffer": 0,
      "byteLength": 41888,
      "byteOffset": 105264,
      "byteStride": 8,
      "name": "floatBufferViews",
      "target": 34962
    },
    {
      "buffer": 0,
      "byteLength": 125664,
      "byteOffset": 147152,
      "byteStride": 12,
      "name": "floatBufferViews",
      "target": 34962
    },
    {
      "buffer": 0,
      "byteLength": 83776,
      "byteOffset": 272816,
      "byteStride": 16,
      "name": "floatBufferViews",
      "target": 34962
    }
  ],
  "buffers": [
    {
      "byteLength": 356592,
      "uri": "scene.bin"
    }
  ],
  "images": [
    {
      "uri": "textures/Jacket_Material_baseColor.jpeg"
    },
    {
      "uri": "textures/Jacket_Material_metallicRoughness.png"
    },
    {
      "uri": "textures/Jacket_Material_normal.png"
    }
  ],
  "materials": [
    {
      "doubleSided": true,
      "name": "Jacket_Material",
      "normalTexture": {
        "index": 2
      },
      "occlusionTexture": {
        "index": 1
      },
      "pbrMetallicRoughness": {
        "baseColorTexture": {
          "index": 0
        },
        "metallicRoughnessTexture": {
          "index": 1
        }
      }
    }
  ],
  "meshes": [
    {
      "name": "defaultMaterial",
      "primitives": [
        {
          "attributes": {
            "NORMAL": 1,
            "POSITION": 0,
            "TANGENT": 2,
            "TEXCOORD_0": 3
          },
          "indices": 4,
          "material": 0,
          "mode": 4
        }
      ]
    },
    {
      "name": "defaultMaterial",
      "primitives": [
        {
          "attributes": {
            "NORMAL": 6,
            "POSITION": 5,
            "TANGENT": 7,
            "TEXCOORD_0": 8
          },
          "indices": 9,
          "material": 0,
          "mode": 4
        }
      ]
    }
  ],
  "nodes": [
    {
      "children": [
        1
      ],
      "matrix": [
        1.0,
        0.0,
        0.0,
        0.0,
        0.0,
        2.220446049250313e-16,
        -1.0,
        0.0,
        0.0,
        1.0,
        2.220446049250313e-16,
        0.0,
        0.0,
        0.0,
        0.0,
        1.0
      ],
      "name": "Sketchfab_model"
    },
    {
      "children": [
        2,
        4
      ],
      "matrix": [
        1.0,
        0.0,
        0.0,
        0.0,
        0.0,
        -4.371139006309477e-08,
        0.999999999999999,
        0.0,
        0.0,
        -0.999999999999999,
        -4.371139006309477e-08,
        0.0,
        0.0,
        0.0,
        0.0,
        1.0
      ],
      "name": "Collada visual scene group"
    },
    {
      "children": [
        3
      ],
      "name": "accessories_low"
    },
    {
      "mesh": 0,
      "name": "defaultMaterial"
    },
    {
      "children": [
        5
      ],
      "name": "Jacket_low"
    },
    {
      "mesh": 1,
      "name": "defaultMaterial"
    }
  ],
  "samplers": [
    {
      "magFilter": 9729,
      "minFilter": 9987,
      "wrapS": 10497,
      "wrapT": 10497
    }
  ],
  "scene": 0,
  "scenes": [
    {
      "name": "Sketchfab_Scene",
      "nodes": [
        0
      ]
    }
  ],
  "textures": [
    {
      "sampler": 0,
      "source": 0
    },
    {
      "sampler": 0,
      "source": 1
    },
    {
      "sampler": 0,
      "source": 2
    }
  ]
}
