{
  "accessors": [
    {
      "bufferView": 2,
      "componentType": 5126,
      "count": 74,
      "max": [
        1.0,
        0.15012282133102417,
        1.0
      ],
      "min": [
        -1.0,
        -0.15012282133102417,
        -1.0
      ],
      "type": "VEC3"
    },
    {
      "bufferView": 2,
      "byteOffset": 888,
      "componentType": 5126,
      "count": 74,
      "max": [
        1.0,
        1.0,
        1.0
      ],
      "min": [
        -1.0,
        -1.0,
        -1.0
      ],
      "type": "VEC3"
    },
    {
      "bufferView": 1,
      "componentType": 5126,
      "count": 74,
      "max": [
        0.8723782300949097,
        1.0
      ],
      "min": [
        0.125,
        0.0
      ],
      "type": "VEC2"
    },
    {
      "bufferView": 0,
      "componentType": 5125,
      "count": 138,
      "type": "SCALAR"
    },
    {
      "bufferView": 2,
      "byteOffset": 1776,
      "componentType": 5126,
      "count": 12,
      "max": [
        0.9614244103431702,
        0.1203446239233017,
        0.9614244103431702
      ],
      "min": [
        -0.9702218174934387,
        -0.1203446239233017,
        -0.9614244103431702
      ],
      "type": "VEC3"
    },
    {
      "bufferView": 2,
      "byteOffset": 1920,
      "componentType": 5126,
      "count": 12,
      "max": [
        1.0,
        0.0,
        0.9999657869338989
      ],
      "min": [
        -0.00827073771506548,
        0.0,
        -0.9999657869338989
      ],
      "type": "VEC3"
    },
    {
      "bufferView": 1,
      "byteOffset": 592,
      "componentType": 5126,
      "count": 12,
      "max": [
        0.6002051830291748,
        0.9962777495384216
      ],
      "min": [
        0.3997948169708252,
        0.25372225046157837
      ],
      "type": "VEC2"
    },
    {
      "bufferView": 0,
      "byteOffset": 552,
      "componentType": 5125,
      "count": 18,
      "type": "SCALAR"
    },
    {
      "bufferView": 2,
      "byteOffset": 2064,
      "componentType": 5126,
      "count": 74,
      "max": [
        1.0,
        0.15012282133102417,
        1.0
      ],
      "min": [
        -1.0,
        -0.15012282133102417,
        -1.0
      ],
      "type": "VEC3"
    },
    {
      "bufferView": 2,
      "byteOffset": 2952,
      "componentType": 5126,
      "count": 74,
      "max": [
        1.0,
        1.0,
        1.0
      ],
      "min": [
        -1.0,
        -1.0,
        -1.0
      ],
      "type": "VEC3"
    },
    {
      "bufferView": 1,
      "byteOffset": 688,
      "componentType": 5126,
      "count": 74,
      "max": [
        0.8723782300949097,
        1.0
      ],
      "min": [
        0.125,
        0.0
      ],
      "type": "VEC2"
    },
    {
      "bufferView": 0,
      "byteOffset": 624,
      "componentType": 5125,
      "count": 138,
      "type": "SCALAR"
    },
    {
      "bufferView": 2,
      "byteOffset": 3840,
      "componentType": 5126,
      "count": 12,
      "max": [
        0.9614244103431702,
        0.1203446239233017,
        0.9614244103431702
      ],
      "min": [
        -0.9702218174934387,
        -0.1203446239233017,
        -0.9614244103431702
      ],
      "type": "VEC3"
    },
    {
      "bufferView": 2,
      "byteOffset": 3984,
      "componentType": 5126,
      "count": 12,
      "max": [
        1.0,
        0.0,
        0.9999657869338989
      ],
      "min": [
        -0.00827073771506548,
        0.0,
        -0.9999657869338989
      ],
      "type": "VEC3"
    },
    {
      "bufferView": 1,
      "byteOffset": 1280,
      "componentType": 5126,
      "count": 12,
      "max": [
        0.6002051830291748,
        0.9962777495384216
      ],
      "min": [
        0.3997948169708252,
        0.25372225046157837
      ],
      "type": "VEC2"
    },
    {
      "bufferView": 0,
      "byteOffset": 1176,
      "componentType": 5125,
      "count": 18,
      "type": "SCALAR"
    },
    {
      "bufferView": 2,
      "byteOffset": 4128,
      "componentType": 5126,
      "count": 6405,
      "max": [
        0.994392991065979,
        0.12719890475273132,
        0.9943929314613342
      ],
      "min": [
        -0.994392991065979,
        -0.6158650517463684,
        -0.9943930506706238
      ],
      "type": "VEC3"
    },
    {
      "bufferView": 2,
      "byteOffset": 80988,
      "componentType": 5126,
      "count": 6405,
      "max": [
        1.0,
        1.0,
        1.0
      ],
      "min": [
        -1.0,
        -1.0,
        -1.0
      ],
      "type": "VEC3"
    },
    {
      "bufferView": 1,
      "byteOffset": 1376,
      "componentType": 5126,
      "count": 6405,
      "max": [
        1.0000001192092896,
        1.0000001192092896
      ],
      "min": [
        0.0,
        0.0
      ],
      "type": "VEC2"
    },
    {
      "bufferView": 0,
      "byteOffset": 1248,
      "componentType": 5125,
      "count": 30348,
      "type": "SCALAR"
    },
    {
      "bufferView": 2,
      "byteOffset": 157848,
      "componentType": 5126,
      "count": 34940,
      "max": [
        0.015055744908750057,
        0.08265890181064606,
        0.045386891812086105
      ],
      "min": [
        -1.075636386871338,
        -0.5962961912155151,
        -0.045386891812086105
      ],
      "type": "VEC3"
    },
    {
      "bufferView": 2,
      "byteOffset": 577128,
      "componentType": 5126,
      "count": 34940,
      "max": [
        0.9996697902679443,
        1.0,
        0.9997026324272156
      ],
      "min": [
        -0.9996697902679443,
        -1.0,
        -0.9996697902679443
      ],
      "type": "VEC3"
    },
    {
      "bufferView": 1,
      "byteOffset": 52616,
      "componentType": 5126,
      "count": 34940,
      "max": [
        0.0,
        0.0
      ],
      "min": [
        0.0,
        0.0
      ],
      "type": "VEC2"
    },
    {
      "bufferView": 0,
      "byteOffset": 122640,
      "componentType": 5125,
      "count": 55296,
      "type": "SCALAR"
    },
    {
      "bufferView": 2,
      "byteOffset": 996408,
      "componentType": 5126,
      "count": 1984,
      "max": [
        -0.9978742599487305,
        -0.4036250114440918,
        0.032375216484069824
      ],
      "min": [
        -1.0626246929168701,
        -0.46837544441223145,
        -0.03237522765994072
      ],
      "type": "VEC3"
    },
    {
      "bufferView": 2,
      "byteOffset": 1020216,
      "componentType": 5126,
      "count": 1984,
      "max": [
        0.9904392957687378,
        0.9951382875442505,
        0.9904382228851318
      ],
      "min": [
        -0.9904384613037109,
        -0.9951382279396057,
        -0.9904383420944214
      ],
      "type": "VEC3"
    },
    {
      "bufferView": 1,
      "byteOffset": 332136,
      "componentType": 5126,
      "count": 1984,
      "max": [
        1.000000238418579,
        1.0
      ],
      "min": [
        0.0,
        0.0
      ],
      "type": "VEC2"
    },
    {
      "bufferView": 0,
      "byteOffset": 343824,
      "componentType": 5125,
      "count": 2880,
      "type": "SCALAR"
    }
  ],
  "asset": {
    "extras": {
      "author": "satkuri (https://sketchfab.com/satkuri)",
      "license": "CC-BY-4.0 (http://creativecommons.org/licenses/by/4.0/)",
      "source": "https://sketchfab.com/3d-models/3d-sketchbook-6-education-icon-270fddebed144f4fbf5a1ba73c3812d3",
      "title": "3D Sketchbook 6 - Education Icon"
    },
    "generator": "Sketchfab-12.67.0",
    "version": "2.0"
  },
  "bufferViews": [
    {
      "buffer": 0,
      "byteLength": 355344,
      "name": "floatBufferViews",
      "target": 34963
    },
    {
      "buffer": 0,
      "byteLength": 348008,
      "byteOffset": 355344,
      "byteStride": 8,
      "name": "floatBufferViews",
      "target": 34962
    },
    {
      "buffer": 0,
      "byteLength": 1044024,
      "byteOffset": 703352,
      "byteStride": 12,
      "name": "floatBufferViews",
      "target": 34962
    }
  ],
  "buffers": [
    {
      "byteLength": 1747376,
      "uri": "scene.bin"
    }
  ],
  "materials": [
    {
      "doubleSided": true,
      "name": "Book1",
      "pbrMetallicRoughness": {
        "baseColorFactor": [
          0.02406,
          0.0478477,
          0.0587676,
          1.0
        ],
        "metallicFactor": 0.0,
        "roughnessFactor": 0.4
      }
    },
    {
      "doubleSided": true,
      "name": "Pages",
      "pbrMetallicRoughness": {
        "metallicFactor": 0.0
      }
    },
    {
      "doubleSided": true,
      "name": "Book2",
      "pbrMetallicRoughness": {
        "baseColorFactor": [
          0.248437,
          0.0679066,
          0.143958,
          1.0
        ],
        "metallicFactor": 0.0,
        "roughnessFactor": 0.766968
      }
    },
    {
      "doubleSided": true,
      "name": "material",
      "pbrMetallicRoughness": {
        "baseColorFactor": [
          0.0173063,
          0.0178943,
          0.0291007,
          1.0
        ],
        "metallicFactor": 0.0,
        "roughnessFactor": 0.690045
      }
    },
    {
      "doubleSided": true,
      "name": "Rope",
      "pbrMetallicRoughness": {
        "baseColorFactor": [
          0.8,
          0.553398,
          0.142429,
          1.0
        ],
        "metallicFactor": 0.0
      }
    },
    {
      "doubleSided": true,
      "name": "Bead",
      "pbrMetallicRoughness": {
        "baseColorFactor": [
          0.0914802,
          0.120912,
          0.178866,
          1.0
        ],
        "metallicFactor": 0.0,
        "roughnessFactor": 0.5
      }
    }
  ],
  "meshes": [
    {
      "name": "Object_0",
      "primitives": [
        {
          "attributes": {
            "NORMAL": 1,
            "POSITION": 0,
            "TEXCOORD_0": 2
          },
          "indices": 3,
          "material": 0,
          "mode": 4
        }
      ]
    },
    {
      "name": "Object_1",
      "primitives": [
        {
          "attributes": {
            "NORMAL": 5,
            "POSITION": 4,
            "TEXCOORD_0": 6
          },
          "indices": 7,
          "material": 1,
          "mode": 4
        }
      ]
    },
    {
      "name": "Object_2",
      "primitives": [
        {
          "attributes": {
            "NORMAL": 9,
            "POSITION": 8,
            "TEXCOORD_0": 10
          },
          "indices": 11,
          "material": 2,
          "mode": 4
        }
      ]
    },
    {
      "name": "Object_3",
      "primitives": [
        {
          "attributes": {
            "NORMAL": 13,
            "POSITION": 12,
            "TEXCOORD_0": 14
          },
          "indices": 15,
          "material": 1,
          "mode": 4
        }
      ]
    },
    {
      "name": "Object_4",
      "primitives": [
        {
          "attributes": {
            "NORMAL": 17,
            "POSITION": 16,
            "TEXCOORD_0": 18
          },
          "indices": 19,
          "material": 3,
          "mode": 4
        }
      ]
    },
    {
      "name": "Object_5",
      "primitives": [
        {
          "attributes": {
            "NORMAL": 21,
            "POSITION": 20,
            "TEXCOORD_0": 22
          },
          "indices": 23,
          "material": 4,
          "mode": 4
        }
      ]
    },
    {
      "name": "Object_6",
      "primitives": [
        {
          "attributes": {
            "NORMAL": 25,
            "POSITION": 24,
            "TEXCOORD_0": 26
          },
          "indices": 27,
          "material": 5,
          "mode": 4
        }
      ]
    }
  ],
  "nodes": [
    {
      "children": [
        1
      ],
      "matrix": [
        1.0,
        0.0,
        0.0,
        0.0,
        0.0,
        2.220446049250313e-16,
        -1.0,
        0.0,
        0.0,
        1.0,
        2.220446049250313e-16,
        0.0,
        0.0,
        0.0,
        0.0,
        1.0
      ],
      "name": "Sketchfab_model"
    },
    {
      "children": [
        2
      ],
      "name": "root"
    },
    {
      "children": [
        3,
        6,
        9,
        11
      ],
      "matrix": [
        1.0,
        0.0,
        0.0,
        0.0,
        0.0,
        2.220446049250313e-16,
        1.0,
        0.0,
        0.0,
        -1.0,
        2.220446049250313e-16,
        0.0,
        0.0,
        0.0,
        0.0,
        1.0
      ],
      "name": "GLTF_SceneRootNode"
    },
    {
      "children": [
        4,
        5
      ],
      "name": "Cube_0"
    },
    {
      "mesh": 0,
      "name": "Object_4"
    },
    {
      "mesh": 1,
      "name": "Object_5"
    },
    {
      "children": [
        7,
        8
      ],
      "matrix": [
        0.8502238941175181,
        0.0,
        -0.5264212475495679,
        0.0,
        0.0,
        1.0,
        0.0,
        0.0,
        0.5264212475495679,
        0.0,
        0.8502238941175181,
        0.0,
        0.0,
        0.2970025837421417,
        0.0,
        1.0
      ],
      "name": "Cube.001_3"
    },
    {
      "mesh": 2,
      "name": "Object_7"
    },
    {
      "mesh": 3,
      "name": "Object_8"
    },
    {
      "children": [
        10
      ],
      "matrix": [
        1.0,
        0.0,
        0.0,
        0.0,
        0.0,
        1.0,
        0.0,
        0.0,
        0.0,
        0.0,
        1.0,
        0.0,
        0.0,
        1.0486187934875488,
        0.0,
        1.0
      ],
      "name": "Cylinder.001_4"
    },
    {
      "mesh": 4,
      "name": "Object_10"
    },
    {
      "children": [
        12,
        13
      ],
      "matrix": [
        1.0,
        0.0,
        0.0,
        0.0,
        0.0,
        1.0,
        0.0,
        0.0,
        0.0,
        0.0,
        1.0,
        0.0,
        0.0,
        1.0668493509292603,
        0.0,
        1.0
      ],
      "name": "Vert.001_6"
    },
    {
      "mesh": 5,
      "name": "Object_12"
    },
    {
      "mesh": 6,
      "name": "Object_13"
    }
  ],
  "scene": 0,
  "scenes": [
    {
      "name": "Sketchfab_Scene",
      "nodes": [
        0
      ]
    }
  ]
}
