{
  "accessors": [
    {
      "bufferView": 2,
      "componentType": 5126,
      "count": 9791,
      "max": [
        4.2326436042785645,
        5.481287479400635,
        4.774616718292236
      ],
      "min": [
        -4.752797603607178,
        -7.245433807373047,
        -4.638836860656738
      ],
      "type": "VEC3"
    },
    {
      "bufferView": 2,
      "byteOffset": 117492,
      "componentType": 5126,
      "count": 9791,
      "max": [
        0.9997020363807678,
        0.9999761581420898,
        0.9998795390129089
      ],
      "min": [
        -0.9994357228279114,
        -0.9999789595603943,
        -0.9999186396598816
      ],
      "type": "VEC3"
    },
    {
      "bufferView": 1,
      "componentType": 5126,
      "count": 9791,
      "max": [
        1.0,
        1.0
      ],
      "min": [
        0.0,
        0.0
      ],
      "type": "VEC2"
    },
    {
      "bufferView": 0,
      "componentType": 5125,
      "count": 34713,
      "type": "SCALAR"
    },
    {
      "bufferView": 2,
      "byteOffset": 234984,
      "componentType": 5126,
      "count": 28,
      "max": [
        1.5034244060516357,
        1.7371735572814941,
        -4.400339603424072
      ],
      "min": [
        1.2257885932922363,
        1.437807559967041,
        -4.509167671203613
      ],
      "type": "VEC3"
    },
    {
      "bufferView": 2,
      "byteOffset": 235320,
      "componentType": 5126,
      "count": 28,
      "max": [
        0.6425349712371826,
        0.2971237599849701,
        0.9662418961524963
      ],
      "min": [
        -0.3112279176712036,
        -0.7049981951713562,
        -0.9908164143562317
      ],
      "type": "VEC3"
    },
    {
      "bufferView": 1,
      "byteOffset": 78328,
      "componentType": 5126,
      "count": 28,
      "max": [
        1.0,
        1.0
      ],
      "min": [
        0.18805964291095734,
        0.10281920433044434
      ],
      "type": "VEC2"
    },
    {
      "bufferView": 0,
      "byteOffset": 138852,
      "componentType": 5125,
      "count": 60,
      "type": "SCALAR"
    },
    {
      "bufferView": 2,
      "byteOffset": 235656,
      "componentType": 5126,
      "count": 43566,
      "max": [
        3.859658718109131,
        5.37319278717041,
        4.524686813354492
      ],
      "min": [
        -4.395633697509766,
        -6.2476396560668945,
        -4.116521835327148
      ],
      "type": "VEC3"
    },
    {
      "bufferView": 2,
      "byteOffset": 758448,
      "componentType": 5126,
      "count": 43566,
      "max": [
        0.9999871850013733,
        0.9999916553497314,
        0.999995231628418
      ],
      "min": [
        -0.9999775886535645,
        -0.9999536275863647,
        -0.9999859929084778
      ],
      "type": "VEC3"
    },
    {
      "bufferView": 1,
      "byteOffset": 78552,
      "componentType": 5126,
      "count": 43566,
      "max": [
        0.9980520009994507,
        0.29473400115966797
      ],
      "min": [
        0.5135520100593567,
        0.0024340152740478516
      ],
      "type": "VEC2"
    },
    {
      "bufferView": 0,
      "byteOffset": 139092,
      "componentType": 5125,
      "count": 333696,
      "type": "SCALAR"
    },
    {
      "bufferView": 3,
      "componentType": 5126,
      "count": 90,
      "max": [
        3.0
      ],
      "min": [
        0.03333333507180214
      ],
      "type": "SCALAR"
    },
    {
      "bufferView": 5,
      "componentType": 5126,
      "count": 90,
      "max": [
        0.0,
        -0.7723560929298401,
        -0.0,
        0.6351898312568665
      ],
      "min": [
        0.0,
        -0.9998029470443726,
        -0.0,
        0.019848190248012543
      ],
      "type": "VEC4"
    },
    {
      "bufferView": 3,
      "byteOffset": 360,
      "componentType": 5126,
      "count": 73,
      "max": [
        3.0
      ],
      "min": [
        0.03333333507180214
      ],
      "type": "SCALAR"
    },
    {
      "bufferView": 4,
      "componentType": 5126,
      "count": 73,
      "max": [
        0.18252629041671753,
        0.18252629041671753,
        0.18252629041671753
      ],
      "min": [
        0.09126313030719757,
        0.09126314520835876,
        0.09126313030719757
      ],
      "type": "VEC3"
    },
    {
      "bufferView": 3,
      "byteOffset": 652,
      "componentType": 5126,
      "count": 90,
      "max": [
        3.0
      ],
      "min": [
        0.03333333507180214
      ],
      "type": "SCALAR"
    },
    {
      "bufferView": 5,
      "byteOffset": 1440,
      "componentType": 5126,
      "count": 90,
      "max": [
        0.0,
        -0.7723560929298401,
        -0.0,
        0.6351898312568665
      ],
      "min": [
        0.0,
        -0.9998029470443726,
        -0.0,
        0.019848190248012543
      ],
      "type": "VEC4"
    },
    {
      "bufferView": 3,
      "byteOffset": 1012,
      "componentType": 5126,
      "count": 90,
      "max": [
        3.0
      ],
      "min": [
        0.03333333507180214
      ],
      "type": "SCALAR"
    },
    {
      "bufferView": 4,
      "byteOffset": 876,
      "componentType": 5126,
      "count": 90,
      "max": [
        0.18299999833106995,
        0.18299999833106995,
        0.18299999833106995
      ],
      "min": [
        0.09126314520835876,
        0.09126314520835876,
        0.09126314520835876
      ],
      "type": "VEC3"
    }
  ],
  "animations": [
    {
      "channels": [
        {
          "sampler": 0,
          "target": {
            "node": 3,
            "path": "rotation"
          }
        },
        {
          "sampler": 1,
          "target": {
            "node": 3,
            "path": "scale"
          }
        }
      ],
      "name": "Action.001",
      "samplers": [
        {
          "input": 12,
          "interpolation": "LINEAR",
          "output": 13
        },
        {
          "input": 14,
          "interpolation": "LINEAR",
          "output": 15
        }
      ]
    },
    {
      "channels": [
        {
          "sampler": 0,
          "target": {
            "node": 6,
            "path": "rotation"
          }
        },
        {
          "sampler": 1,
          "target": {
            "node": 6,
            "path": "scale"
          }
        }
      ],
      "name": "Action",
      "samplers": [
        {
          "input": 16,
          "interpolation": "LINEAR",
          "output": 17
        },
        {
          "input": 18,
          "interpolation": "LINEAR",
          "output": 19
        }
      ]
    }
  ],
  "asset": {
    "extras": {
      "author": "mthPRBLM (https://sketchfab.com/mthPRBLM)",
      "license": "CC-BY-4.0 (http://creativecommons.org/licenses/by/4.0/)",
      "source": "https://sketchfab.com/3d-models/spinning-thinking-being-56abb8a7557b490489e30831ae8a5236",
      "title": "Spinning Thinking Being"
    },
    "generator": "Sketchfab-13.53.0",
    "version": "2.0"
  },
  "bufferViews": [
    {
      "buffer": 0,
      "byteLength": 1473876,
      "name": "floatBufferViews",
      "target": 34963
    },
    {
      "buffer": 0,
      "byteLength": 427080,
      "byteOffset": 1473876,
      "byteStride": 8,
      "name": "floatBufferViews",
      "target": 34962
    },
    {
      "buffer": 0,
      "byteLength": 1281240,
      "byteOffset": 1900956,
      "byteStride": 12,
      "name": "floatBufferViews",
      "target": 34962
    },
    {
      "buffer": 0,
      "byteLength": 1372,
      "byteOffset": 3182196,
      "name": "floatBufferViews"
    },
    {
      "buffer": 0,
      "byteLength": 1956,
      "byteOffset": 3183568,
      "byteStride": 12,
      "name": "floatBufferViews"
    },
    {
      "buffer": 0,
      "byteLength": 2880,
      "byteOffset": 3185524,
      "byteStride": 16,
      "name": "floatBufferViews"
    }
  ],
  "buffers": [
    {
      "byteLength": 3188404,
      "uri": "scene.bin"
    }
  ],
  "materials": [
    {
      "doubleSided": true,
      "name": "BLACK"
    },
    {
      "doubleSided": true,
      "emissiveFactor": [
        0.615178,
        0.615178,
        0.615178
      ],
      "name": "Material.003",
      "pbrMetallicRoughness": {
        "roughnessFactor": 0.2
      }
    },
    {
      "doubleSided": true,
      "emissiveFactor": [
        1.0,
        0.0,
        1.0
      ],
      "name": "Material.001",
      "pbrMetallicRoughness": {
        "baseColorFactor": [
          0.0,
          0.638271,
          0.0251448,
          1.0
        ],
        "metallicFactor": 0.0,
        "roughnessFactor": 0.5
      }
    }
  ],
  "meshes": [
    {
      "name": "Object_0",
      "primitives": [
        {
          "attributes": {
            "NORMAL": 1,
            "POSITION": 0,
            "TEXCOORD_0": 2
          },
          "indices": 3,
          "material": 0,
          "mode": 4
        }
      ]
    },
    {
      "name": "Object_1",
      "primitives": [
        {
          "attributes": {
            "NORMAL": 5,
            "POSITION": 4,
            "TEXCOORD_0": 6
          },
          "indices": 7,
          "material": 1,
          "mode": 4
        }
      ]
    },
    {
      "name": "Object_2",
      "primitives": [
        {
          "attributes": {
            "NORMAL": 9,
            "POSITION": 8,
            "TEXCOORD_0": 10
          },
          "indices": 11,
          "material": 2,
          "mode": 4
        }
      ]
    }
  ],
  "nodes": [
    {
      "children": [
        1
      ],
      "matrix": [
        1.0,
        0.0,
        0.0,
        0.0,
        0.0,
        2.220446049250313e-16,
        -1.0,
        0.0,
        0.0,
        1.0,
        2.220446049250313e-16,
        0.0,
        0.0,
        0.0,
        0.0,
        1.0
      ],
      "name": "Sketchfab_model"
    },
    {
      "children": [
        2
      ],
      "name": "root"
    },
    {
      "children": [
        3,
        6
      ],
      "matrix": [
        1.0,
        0.0,
        0.0,
        0.0,
        0.0,
        2.220446049250313e-16,
        1.0,
        0.0,
        0.0,
        -1.0,
        2.220446049250313e-16,
        0.0,
        0.0,
        0.0,
        0.0,
        1.0
      ],
      "name": "GLTF_SceneRootNode"
    },
    {
      "children": [
        4,
        5
      ],
      "name": "head.003_cell.039_0",
      "rotation": [
        0.0,
        -0.7723560333251953,
        0.0,
        0.6351898908615112
      ],
      "scale": [
        0.09126314520835876,
        0.09126314520835876,
        0.09126314520835876
      ],
      "translation": [
        0.0,
        0.11999999731779099,
        0.0
      ]
    },
    {
      "mesh": 0,
      "name": "Object_4"
    },
    {
      "mesh": 1,
      "name": "Object_5"
    },
    {
      "children": [
        7
      ],
      "name": "head.003_1",
      "rotation": [
        0.0,
        -0.7723560333251953,
        0.0,
        0.6351898908615112
      ],
      "scale": [
        0.09126314520835876,
        0.09126314520835876,
        0.09126314520835876
      ],
      "translation": [
        0.0,
        0.12325107306241989,
        0.0
      ]
    },
    {
      "mesh": 2,
      "name": "Object_7"
    }
  ],
  "scene": 0,
  "scenes": [
    {
      "name": "Sketchfab_Scene",
      "nodes": [
        0
      ]
    }
  ]
}
